<svg xmlns="http://www.w3.org/2000/svg" xmlns:xlink="http://www.w3.org/1999/xlink" xmlns:lucid="lucid" width="1081" height="705"><g transform="translate(720.5 124.5)" lucid:page-tab-id="0_0"><path d="M-1000-500H500v1500h-1500z" fill="#fff"/><path d="M-320-119a5 5 0 0 1 5-5h270a5 5 0 0 1 5 5V71a5 5 0 0 1-5 5h-270a5 5 0 0 1-5-5z" fill="#fff"/><path d="M-320-84v-35a5 5 0 0 1 5-5h270a5 5 0 0 1 5 5v35" fill="#ced4db"/><path d="M-320-119a5 5 0 0 1 5-5h270a5 5 0 0 1 5 5V71a5 5 0 0 1-5 5h-270a5 5 0 0 1-5-5zM-320-84h280M-180-84V76" stroke="#282c33" fill="none"/><use xlink:href="#a" transform="matrix(1,0,0,1,-310,-124) translate(0 23.6)"/><use xlink:href="#b" transform="matrix(1,0,0,1,-315,-81.5) translate(0 17.1)"/><use xlink:href="#c" transform="matrix(1,0,0,1,-175,-81.5) translate(0 17.1)"/><use xlink:href="#d" transform="matrix(1,0,0,1,-315,-49.5) translate(0 17.1)"/><use xlink:href="#e" transform="matrix(1,0,0,1,-175,-49.5) translate(0 17.1)"/><use xlink:href="#f" transform="matrix(1,0,0,1,-315,-17.5) translate(0 17.1)"/><use xlink:href="#g" transform="matrix(1,0,0,1,-175,-17.5) translate(0 17.1)"/><use xlink:href="#h" transform="matrix(1,0,0,1,-315,14.5) translate(0 17.1)"/><use xlink:href="#e" transform="matrix(1,0,0,1,-175,14.5) translate(0 17.1)"/><use xlink:href="#i" transform="matrix(1,0,0,1,-315,46.5) translate(0 17.1)"/><use xlink:href="#j" transform="matrix(1,0,0,1,-175,46.5) translate(0 17.1)"/><path d="M-320 385a5 5 0 0 1 5-5h270a5 5 0 0 1 5 5v190a5 5 0 0 1-5 5h-270a5 5 0 0 1-5-5z" fill="#fff"/><path d="M-320 420v-35a5 5 0 0 1 5-5h270a5 5 0 0 1 5 5v35" fill="#ced4db"/><path d="M-320 385a5 5 0 0 1 5-5h270a5 5 0 0 1 5 5v190a5 5 0 0 1-5 5h-270a5 5 0 0 1-5-5zM-320 420h280M-180 420v160" stroke="#282c33" fill="none"/><use xlink:href="#k" transform="matrix(1,0,0,1,-310,380) translate(0 23.6)"/><use xlink:href="#b" transform="matrix(1,0,0,1,-315,422.5) translate(0 17.1)"/><use xlink:href="#c" transform="matrix(1,0,0,1,-175,422.5) translate(0 17.1)"/><use xlink:href="#l" transform="matrix(1,0,0,1,-315,454.5) translate(0 17.1)"/><use xlink:href="#m" transform="matrix(1,0,0,1,-175,454.5) translate(0 17.1)"/><use xlink:href="#n" transform="matrix(1,0,0,1,-315,486.5) translate(0 17.1)"/><use xlink:href="#m" transform="matrix(1,0,0,1,-175,486.5) translate(0 17.1)"/><use xlink:href="#h" transform="matrix(1,0,0,1,-315,518.5) translate(0 17.1)"/><use xlink:href="#e" transform="matrix(1,0,0,1,-175,518.5) translate(0 17.1)"/><use xlink:href="#o" transform="matrix(1,0,0,1,-315,550.5) translate(0 17.1)"/><use xlink:href="#p" transform="matrix(1,0,0,1,-175,550.5) translate(0 17.1)"/><path d="M80 165a5 5 0 0 1 5-5h270a5 5 0 0 1 5 5v126a5 5 0 0 1-5 5H85a5 5 0 0 1-5-5z" fill="#fff"/><path d="M80 200v-35a5 5 0 0 1 5-5h270a5 5 0 0 1 5 5v35" fill="#ced4db"/><path d="M80 165a5 5 0 0 1 5-5h270a5 5 0 0 1 5 5v126a5 5 0 0 1-5 5H85a5 5 0 0 1-5-5zM80 200h280M220 200v96" stroke="#282c33" fill="none"/><use xlink:href="#q" transform="matrix(1,0,0,1,90,160) translate(0 23.6)"/><use xlink:href="#b" transform="matrix(1,0,0,1,85,202.5) translate(0 17.1)"/><use xlink:href="#c" transform="matrix(1,0,0,1,225,202.5) translate(0 17.1)"/><use xlink:href="#r" transform="matrix(1,0,0,1,85,234.5) translate(0 17.1)"/><use xlink:href="#m" transform="matrix(1,0,0,1,225,234.5) translate(0 17.1)"/><use xlink:href="#h" transform="matrix(1,0,0,1,85,266.5) translate(0 17.1)"/><use xlink:href="#e" transform="matrix(1,0,0,1,225,266.5) translate(0 17.1)"/><path d="M220 316.5v167.1a6 6 0 0 1-6 6H-20.1M220 296.5v20m-10 0h20M-39.28 489.6h20m-20 10l20-10m-20-10l20 10" stroke="#3a414a" fill="none"/><path d="M-720 165a5 5 0 0 1 5-5h270a5 5 0 0 1 5 5v126a5 5 0 0 1-5 5h-270a5 5 0 0 1-5-5z" fill="#fff"/><path d="M-720 200v-35a5 5 0 0 1 5-5h270a5 5 0 0 1 5 5v35" fill="#ced4db"/><path d="M-720 165a5 5 0 0 1 5-5h270a5 5 0 0 1 5 5v126a5 5 0 0 1-5 5h-270a5 5 0 0 1-5-5zM-720 200h280M-580 200v96" stroke="#282c33" fill="none"/><use xlink:href="#s" transform="matrix(1,0,0,1,-710,160) translate(0 23.6)"/><use xlink:href="#b" transform="matrix(1,0,0,1,-715,202.5) translate(0 17.1)"/><use xlink:href="#c" transform="matrix(1,0,0,1,-575,202.5) translate(0 17.1)"/><use xlink:href="#r" transform="matrix(1,0,0,1,-715,234.5) translate(0 17.1)"/><use xlink:href="#m" transform="matrix(1,0,0,1,-575,234.5) translate(0 17.1)"/><use xlink:href="#t" transform="matrix(1,0,0,1,-715,266.5) translate(0 17.1)"/><use xlink:href="#u" transform="matrix(1,0,0,1,-575,266.5) translate(0 17.1)"/><path d="M-320 165a5 5 0 0 1 5-5h270a5 5 0 0 1 5 5v126a5 5 0 0 1-5 5h-270a5 5 0 0 1-5-5z" fill="#fff"/><path d="M-320 200v-35a5 5 0 0 1 5-5h270a5 5 0 0 1 5 5v35" fill="#ced4db"/><path d="M-320 165a5 5 0 0 1 5-5h270a5 5 0 0 1 5 5v126a5 5 0 0 1-5 5h-270a5 5 0 0 1-5-5zM-320 200h280M-180 200v96" stroke="#282c33" fill="none"/><use xlink:href="#v" transform="matrix(1,0,0,1,-310,160) translate(0 23.6)"/><use xlink:href="#b" transform="matrix(1,0,0,1,-315,202.5) translate(0 17.1)"/><use xlink:href="#c" transform="matrix(1,0,0,1,-175,202.5) translate(0 17.1)"/><use xlink:href="#l" transform="matrix(1,0,0,1,-315,234.5) translate(0 17.1)"/><use xlink:href="#m" transform="matrix(1,0,0,1,-175,234.5) translate(0 17.1)"/><use xlink:href="#n" transform="matrix(1,0,0,1,-315,266.5) translate(0 17.1)"/><use xlink:href="#m" transform="matrix(1,0,0,1,-175,266.5) translate(0 17.1)"/><path d="M-321 215.96h-99.1" stroke="#3a414a" fill="none"/><path d="M-320.5 216.43h-.5v-.95h.5z" stroke="#3a414a" stroke-width=".05" fill="#3a414a"/><path d="M-439.28 215.96h20m-20 10l20-10m-20-10l20 10M-39 215.96h99.1" stroke="#3a414a" fill="none"/><path d="M-39 216.43h-.5v-.95h.5z" stroke="#3a414a" stroke-width=".05" fill="#3a414a"/><path d="M79.28 215.96h-20m20-10l-20 10m20 10l-20-10M-340.5-36.04H-574a6 6 0 0 0-6 6V119.5M-320.5-36.04h-20m0-10v20" stroke="#3a414a" fill="none"/><path d="M-580 159.28v-20m10 20l-10-20m-10 20l10-20m10-10c0 5.52-4.48 10-10 10s-10-4.48-10-10c0-5.53 4.48-10 10-10s10 4.47 10 10z" stroke="#3a414a" fill="#fff"/><path d="M-19.5-36.04H214a6 6 0 0 1 6 6V119.5M-39.5-36.04h20m0 10v-20" stroke="#3a414a" fill="none"/><path d="M220 159.28v-20m10 20l-10-20m-10 20l10-20m10-10c0 5.52-4.48 10-10 10s-10-4.48-10-10c0-5.53 4.48-10 10-10s10 4.47 10 10z" stroke="#3a414a" fill="#fff"/><path d="M-20 426a6 6 0 0 1 6-6h208a6 6 0 0 1 6 6v48a6 6 0 0 1-6 6H-14a6 6 0 0 1-6-6z" fill="none"/><use xlink:href="#w" transform="matrix(1,0,0,1,-20,420) translate(7.382716049382708 22.888888888888886)"/><use xlink:href="#x" transform="matrix(1,0,0,1,-20,420) translate(46.888888888888886 22.888888888888886)"/><use xlink:href="#y" transform="matrix(1,0,0,1,-20,420) translate(90.2962962962963 22.888888888888886)"/><use xlink:href="#z" transform="matrix(1,0,0,1,-20,420) translate(148.51851851851853 22.888888888888886)"/><use xlink:href="#A" transform="matrix(1,0,0,1,-20,420) translate(197.80246913580248 22.888888888888886)"/><use xlink:href="#B" transform="matrix(1,0,0,1,-20,420) translate(43.90123456790123 44.22222222222222)"/><use xlink:href="#C" transform="matrix(1,0,0,1,-20,420) translate(58.716049382716044 44.22222222222222)"/><use xlink:href="#D" transform="matrix(1,0,0,1,-20,420) translate(92.2962962962963 44.22222222222222)"/><use xlink:href="#B" transform="matrix(1,0,0,1,-20,420) translate(112.98765432098766 44.22222222222222)"/><use xlink:href="#E" transform="matrix(1,0,0,1,-20,420) translate(127.80246913580247 44.22222222222222)"/><path d="M-580 316.5v177.57a6 6 0 0 0 6 6h234.1M-580 296.5v20m-10 0h20M-320.72 500.07h-20m20-10l-20 10m20 10l-20-10" stroke="#3a414a" fill="none"/><defs><path d="M232-93c-1 65-40 97-104 97C67 4 28-28 28-90v-158h33c8 89-33 224 67 224 102 0 64-133 71-224h33v155" id="F"/><path d="M135-143c-3-34-86-38-87 0 15 53 115 12 119 90S17 21 10-45l28-5c4 36 97 45 98 0-10-56-113-15-118-90-4-57 82-63 122-42 12 7 21 19 24 35" id="G"/><path d="M100-194c63 0 86 42 84 106H49c0 40 14 67 53 68 26 1 43-12 49-29l28 8c-11 28-37 45-77 45C44 4 14-33 15-96c1-61 26-98 85-98zm52 81c6-60-76-77-97-28-3 7-6 17-6 28h103" id="H"/><path d="M114-163C36-179 61-72 57 0H25l-1-190h30c1 12-1 29 2 39 6-27 23-49 58-41v29" id="I"/><g id="a"><use transform="matrix(0.05,0,0,0.05,0,0)" xlink:href="#F"/><use transform="matrix(0.05,0,0,0.05,12.950000000000001,0)" xlink:href="#G"/><use transform="matrix(0.05,0,0,0.05,21.950000000000003,0)" xlink:href="#H"/><use transform="matrix(0.05,0,0,0.05,31.950000000000003,0)" xlink:href="#I"/><use transform="matrix(0.05,0,0,0.05,37.900000000000006,0)" xlink:href="#G"/></g><path d="M24-231v-30h32v30H24zM24 0v-190h32V0H24" id="J"/><path d="M85-194c31 0 48 13 60 33l-1-100h32l1 261h-30c-2-10 0-23-3-31C134-8 116 4 85 4 32 4 16-35 15-94c0-66 23-100 70-100zm9 24c-40 0-46 34-46 75 0 40 6 74 45 74 42 0 51-32 51-76 0-42-9-74-50-73" id="K"/><g id="b"><use transform="matrix(0.05,0,0,0.05,0,0)" xlink:href="#J"/><use transform="matrix(0.05,0,0,0.05,3.95,0)" xlink:href="#K"/></g><path d="M30-248c87 1 191-15 191 75 0 78-77 80-158 76V0H30v-248zm33 125c57 0 124 11 124-50 0-59-68-47-124-48v98" id="L"/><path d="M194 0L95-120 63-95V0H30v-248h33v124l119-124h40L117-140 236 0h-42" id="M"/><g id="c"><use transform="matrix(0.05,0,0,0.05,0,0)" xlink:href="#L"/><use transform="matrix(0.05,0,0,0.05,12,0)" xlink:href="#M"/></g><path d="M210-169c-67 3-38 105-44 169h-31v-121c0-29-5-50-35-48C34-165 62-65 56 0H25l-1-190h30c1 10-1 24 2 32 10-44 99-50 107 0 11-21 27-35 58-36 85-2 47 119 55 194h-31v-121c0-29-5-49-35-48" id="N"/><path d="M141-36C126-15 110 5 73 4 37 3 15-17 15-53c-1-64 63-63 125-63 3-35-9-54-41-54-24 1-41 7-42 31l-33-3c5-37 33-52 76-52 45 0 72 20 72 64v82c-1 20 7 32 28 27v20c-31 9-61-2-59-35zM48-53c0 20 12 33 32 33 41-3 63-29 60-74-43 2-92-5-92 41" id="O"/><path d="M24 0v-261h32V0H24" id="P"/><g id="d"><use transform="matrix(0.05,0,0,0.05,0,0)" xlink:href="#H"/><use transform="matrix(0.05,0,0,0.05,10,0)" xlink:href="#N"/><use transform="matrix(0.05,0,0,0.05,24.950000000000003,0)" xlink:href="#O"/><use transform="matrix(0.05,0,0,0.05,34.95,0)" xlink:href="#J"/><use transform="matrix(0.05,0,0,0.05,38.900000000000006,0)" xlink:href="#P"/></g><path d="M137 0h-34L2-248h35l83 218 83-218h36" id="Q"/><path d="M205 0l-28-72H64L36 0H1l101-248h38L239 0h-34zm-38-99l-47-123c-12 45-31 82-46 123h93" id="R"/><path d="M233-177c-1 41-23 64-60 70L243 0h-38l-65-103H63V0H30v-248c88 3 205-21 203 71zM63-129c60-2 137 13 137-47 0-61-80-42-137-45v92" id="S"/><path d="M212-179c-10-28-35-45-73-45-59 0-87 40-87 99 0 60 29 101 89 101 43 0 62-24 78-52l27 14C228-24 195 4 139 4 59 4 22-46 18-125c-6-104 99-153 187-111 19 9 31 26 39 46" id="T"/><path d="M197 0v-115H63V0H30v-248h33v105h134v-105h34V0h-34" id="U"/><path d="M87 75C49 33 22-17 22-94c0-76 28-126 65-167h31c-38 41-64 92-64 168S80 34 118 75H87" id="V"/><path d="M101-251c82-7 93 87 43 132L82-64C71-53 59-42 53-27h129V0H18c2-99 128-94 128-182 0-28-16-43-45-43s-46 15-49 41l-32-3c6-41 34-60 81-64" id="W"/><path d="M54-142c48-35 137-8 131 61C196 18 31 33 14-55l32-4c7 23 22 37 52 37 35-1 51-22 54-58 4-55-73-65-99-34H22l8-134h141v27H59" id="X"/><path d="M33-261c38 41 65 92 65 168S71 34 33 75H2C39 34 66-17 66-93S39-220 2-261h31" id="Y"/><g id="e"><use transform="matrix(0.05,0,0,0.05,0,0)" xlink:href="#Q"/><use transform="matrix(0.05,0,0,0.05,10.65,0)" xlink:href="#R"/><use transform="matrix(0.05,0,0,0.05,22.65,0)" xlink:href="#S"/><use transform="matrix(0.05,0,0,0.05,35.6,0)" xlink:href="#T"/><use transform="matrix(0.05,0,0,0.05,48.550000000000004,0)" xlink:href="#U"/><use transform="matrix(0.05,0,0,0.05,61.5,0)" xlink:href="#R"/><use transform="matrix(0.05,0,0,0.05,73.5,0)" xlink:href="#S"/><use transform="matrix(0.05,0,0,0.05,86.45,0)" xlink:href="#V"/><use transform="matrix(0.05,0,0,0.05,92.4,0)" xlink:href="#W"/><use transform="matrix(0.05,0,0,0.05,102.4,0)" xlink:href="#X"/><use transform="matrix(0.05,0,0,0.05,112.4,0)" xlink:href="#X"/><use transform="matrix(0.05,0,0,0.05,122.4,0)" xlink:href="#Y"/></g><path d="M115-194c55 1 70 41 70 98S169 2 115 4C84 4 66-9 55-30l1 105H24l-1-265h31l2 30c10-21 28-34 59-34zm-8 174c40 0 45-34 45-75s-6-73-45-74c-42 0-51 32-51 76 0 43 10 73 51 73" id="Z"/><path d="M206 0h-36l-40-164L89 0H53L-1-190h32L70-26l43-164h34l41 164 42-164h31" id="aa"/><path d="M100-194c62-1 85 37 85 99 1 63-27 99-86 99S16-35 15-95c0-66 28-99 85-99zM99-20c44 1 53-31 53-75 0-43-8-75-51-75s-53 32-53 75 10 74 51 75" id="ab"/><g id="f"><use transform="matrix(0.05,0,0,0.05,0,0)" xlink:href="#Z"/><use transform="matrix(0.05,0,0,0.05,10,0)" xlink:href="#O"/><use transform="matrix(0.05,0,0,0.05,20,0)" xlink:href="#G"/><use transform="matrix(0.05,0,0,0.05,29,0)" xlink:href="#G"/><use transform="matrix(0.05,0,0,0.05,38,0)" xlink:href="#aa"/><use transform="matrix(0.05,0,0,0.05,50.95,0)" xlink:href="#ab"/><use transform="matrix(0.05,0,0,0.05,60.95,0)" xlink:href="#I"/><use transform="matrix(0.05,0,0,0.05,66.9,0)" xlink:href="#K"/></g><g id="g"><use transform="matrix(0.05,0,0,0.05,0,0)" xlink:href="#Q"/><use transform="matrix(0.05,0,0,0.05,10.65,0)" xlink:href="#R"/><use transform="matrix(0.05,0,0,0.05,22.65,0)" xlink:href="#S"/><use transform="matrix(0.05,0,0,0.05,35.6,0)" xlink:href="#T"/><use transform="matrix(0.05,0,0,0.05,48.550000000000004,0)" xlink:href="#U"/><use transform="matrix(0.05,0,0,0.05,61.5,0)" xlink:href="#R"/><use transform="matrix(0.05,0,0,0.05,73.5,0)" xlink:href="#S"/><use transform="matrix(0.05,0,0,0.05,86.45,0)" xlink:href="#V"/><use transform="matrix(0.05,0,0,0.05,92.4,0)" xlink:href="#W"/><use transform="matrix(0.05,0,0,0.05,102.4,0)" xlink:href="#X"/><use transform="matrix(0.05,0,0,0.05,112.4,0)" xlink:href="#X"/><use transform="matrix(0.05,0,0,0.05,122.4,0)" xlink:href="#Y"/></g><path d="M117-194c89-4 53 116 60 194h-32v-121c0-31-8-49-39-48C34-167 62-67 57 0H25l-1-190h30c1 10-1 24 2 32 11-22 29-35 61-36" id="ac"/><g id="h"><use transform="matrix(0.05,0,0,0.05,0,0)" xlink:href="#ac"/><use transform="matrix(0.05,0,0,0.05,10,0)" xlink:href="#O"/><use transform="matrix(0.05,0,0,0.05,20,0)" xlink:href="#N"/><use transform="matrix(0.05,0,0,0.05,34.95,0)" xlink:href="#H"/></g><path d="M177-190C167-65 218 103 67 71c-23-6-38-20-44-43l32-5c15 47 100 32 89-28v-30C133-14 115 1 83 1 29 1 15-40 15-95c0-56 16-97 71-98 29-1 48 16 59 35 1-10 0-23 2-32h30zM94-22c36 0 50-32 50-73 0-42-14-75-50-75-39 0-46 34-46 75s6 73 46 73" id="ad"/><path d="M106-169C34-169 62-67 57 0H25v-261h32l-1 103c12-21 28-36 61-36 89 0 53 116 60 194h-32v-121c2-32-8-49-39-48" id="ae"/><path d="M59-47c-2 24 18 29 38 22v24C64 9 27 4 27-40v-127H5v-23h24l9-43h21v43h35v23H59v120" id="af"/><g id="i"><use transform="matrix(0.05,0,0,0.05,0,0)" xlink:href="#aa"/><use transform="matrix(0.05,0,0,0.05,12.950000000000001,0)" xlink:href="#H"/><use transform="matrix(0.05,0,0,0.05,22.950000000000003,0)" xlink:href="#J"/><use transform="matrix(0.05,0,0,0.05,26.900000000000002,0)" xlink:href="#ad"/><use transform="matrix(0.05,0,0,0.05,36.900000000000006,0)" xlink:href="#ae"/><use transform="matrix(0.05,0,0,0.05,46.900000000000006,0)" xlink:href="#af"/></g><path d="M63-220v92h138v28H63V0H30v-248h175v28H63" id="ag"/><path d="M30 0v-248h33v221h125V0H30" id="ah"/><path d="M140-251c81 0 123 46 123 126C263-46 219 4 140 4 59 4 17-45 17-125s42-126 123-126zm0 227c63 0 89-41 89-101s-29-99-89-99c-61 0-89 39-89 99S79-25 140-24" id="ai"/><path d="M127-220V0H93v-220H8v-28h204v28h-85" id="aj"/><g id="j"><use transform="matrix(0.05,0,0,0.05,0,0)" xlink:href="#ag"/><use transform="matrix(0.05,0,0,0.05,10.950000000000001,0)" xlink:href="#ah"/><use transform="matrix(0.05,0,0,0.05,20.950000000000003,0)" xlink:href="#ai"/><use transform="matrix(0.05,0,0,0.05,34.95,0)" xlink:href="#R"/><use transform="matrix(0.05,0,0,0.05,45.6,0)" xlink:href="#aj"/></g><g id="k"><use transform="matrix(0.05,0,0,0.05,0,0)" xlink:href="#ag"/><use transform="matrix(0.05,0,0,0.05,10.950000000000001,0)" xlink:href="#ab"/><use transform="matrix(0.05,0,0,0.05,20.950000000000003,0)" xlink:href="#ab"/><use transform="matrix(0.05,0,0,0.05,30.950000000000003,0)" xlink:href="#K"/></g><path d="M179-190L93 31C79 59 56 82 12 73V49c39 6 53-20 64-50L1-190h34L92-34l54-156h33" id="ak"/><path d="M-5 72V49h209v23H-5" id="al"/><g id="l"><use transform="matrix(0.05,0,0,0.05,0,0)" xlink:href="#K"/><use transform="matrix(0.05,0,0,0.05,10,0)" xlink:href="#O"/><use transform="matrix(0.05,0,0,0.05,20,0)" xlink:href="#ak"/><use transform="matrix(0.05,0,0,0.05,29,0)" xlink:href="#al"/><use transform="matrix(0.05,0,0,0.05,39,0)" xlink:href="#J"/><use transform="matrix(0.05,0,0,0.05,42.95,0)" xlink:href="#K"/></g><g id="m"><use transform="matrix(0.05,0,0,0.05,0,0)" xlink:href="#ag"/><use transform="matrix(0.05,0,0,0.05,10.950000000000001,0)" xlink:href="#M"/></g><path d="M96-169c-40 0-48 33-48 73s9 75 48 75c24 0 41-14 43-38l32 2c-6 37-31 61-74 61-59 0-76-41-82-99-10-93 101-131 147-64 4 7 5 14 7 22l-32 3c-4-21-16-35-41-35" id="am"/><g id="n"><use transform="matrix(0.05,0,0,0.05,0,0)" xlink:href="#I"/><use transform="matrix(0.05,0,0,0.05,5.95,0)" xlink:href="#H"/><use transform="matrix(0.05,0,0,0.05,15.949999999999998,0)" xlink:href="#am"/><use transform="matrix(0.05,0,0,0.05,24.95,0)" xlink:href="#J"/><use transform="matrix(0.05,0,0,0.05,28.899999999999995,0)" xlink:href="#Z"/><use transform="matrix(0.05,0,0,0.05,38.9,0)" xlink:href="#H"/><use transform="matrix(0.05,0,0,0.05,48.9,0)" xlink:href="#al"/><use transform="matrix(0.05,0,0,0.05,58.900000000000006,0)" xlink:href="#J"/><use transform="matrix(0.05,0,0,0.05,62.85,0)" xlink:href="#K"/></g><g id="o"><use transform="matrix(0.05,0,0,0.05,0,0)" xlink:href="#am"/><use transform="matrix(0.05,0,0,0.05,9,0)" xlink:href="#O"/><use transform="matrix(0.05,0,0,0.05,19,0)" xlink:href="#P"/><use transform="matrix(0.05,0,0,0.05,22.95,0)" xlink:href="#ab"/><use transform="matrix(0.05,0,0,0.05,32.95,0)" xlink:href="#I"/><use transform="matrix(0.05,0,0,0.05,38.900000000000006,0)" xlink:href="#J"/><use transform="matrix(0.05,0,0,0.05,42.85000000000001,0)" xlink:href="#H"/><use transform="matrix(0.05,0,0,0.05,52.85,0)" xlink:href="#G"/></g><path d="M33 0v-248h34V0H33" id="an"/><path d="M190 0L58-211 59 0H30v-248h39L202-35l-2-213h31V0h-41" id="ao"/><path d="M30 0v-248h187v28H63v79h144v27H63v87h162V0H30" id="ap"/><path d="M143 4C61 4 22-44 18-125c-5-107 100-154 193-111 17 8 29 25 37 43l-32 9c-13-25-37-40-76-40-61 0-88 39-88 99 0 61 29 100 91 101 35 0 62-11 79-27v-45h-74v-28h105v86C228-13 192 4 143 4" id="aq"/><g id="p"><use transform="matrix(0.05,0,0,0.05,0,0)" xlink:href="#an"/><use transform="matrix(0.05,0,0,0.05,5,0)" xlink:href="#ao"/><use transform="matrix(0.05,0,0,0.05,17.950000000000003,0)" xlink:href="#aj"/><use transform="matrix(0.05,0,0,0.05,28.900000000000006,0)" xlink:href="#ap"/><use transform="matrix(0.05,0,0,0.05,40.900000000000006,0)" xlink:href="#aq"/><use transform="matrix(0.05,0,0,0.05,54.900000000000006,0)" xlink:href="#ap"/><use transform="matrix(0.05,0,0,0.05,66.9,0)" xlink:href="#S"/></g><g id="q"><use transform="matrix(0.05,0,0,0.05,0,0)" xlink:href="#S"/><use transform="matrix(0.05,0,0,0.05,12.950000000000001,0)" xlink:href="#H"/><use transform="matrix(0.05,0,0,0.05,22.950000000000003,0)" xlink:href="#am"/><use transform="matrix(0.05,0,0,0.05,31.950000000000003,0)" xlink:href="#J"/><use transform="matrix(0.05,0,0,0.05,35.900000000000006,0)" xlink:href="#Z"/><use transform="matrix(0.05,0,0,0.05,45.900000000000006,0)" xlink:href="#H"/><use transform="matrix(0.05,0,0,0.05,55.900000000000006,0)" xlink:href="#G"/></g><path d="M84 4C-5 8 30-112 23-190h32v120c0 31 7 50 39 49 72-2 45-101 50-169h31l1 190h-30c-1-10 1-25-2-33-11 22-28 36-60 37" id="ar"/><g id="r"><use transform="matrix(0.05,0,0,0.05,0,0)" xlink:href="#ar"/><use transform="matrix(0.05,0,0,0.05,10,0)" xlink:href="#G"/><use transform="matrix(0.05,0,0,0.05,19,0)" xlink:href="#H"/><use transform="matrix(0.05,0,0,0.05,29,0)" xlink:href="#I"/><use transform="matrix(0.05,0,0,0.05,34.95,0)" xlink:href="#al"/><use transform="matrix(0.05,0,0,0.05,44.95,0)" xlink:href="#J"/><use transform="matrix(0.05,0,0,0.05,48.900000000000006,0)" xlink:href="#K"/></g><path d="M30-248c118-7 216 8 213 122C240-48 200 0 122 0H30v-248zM63-27c89 8 146-16 146-99s-60-101-146-95v194" id="as"/><g id="s"><use transform="matrix(0.05,0,0,0.05,0,0)" xlink:href="#as"/><use transform="matrix(0.05,0,0,0.05,12.950000000000001,0)" xlink:href="#O"/><use transform="matrix(0.05,0,0,0.05,22.950000000000003,0)" xlink:href="#ak"/></g><g id="t"><use transform="matrix(0.05,0,0,0.05,0,0)" xlink:href="#K"/><use transform="matrix(0.05,0,0,0.05,10,0)" xlink:href="#O"/><use transform="matrix(0.05,0,0,0.05,20,0)" xlink:href="#af"/><use transform="matrix(0.05,0,0,0.05,25,0)" xlink:href="#H"/></g><g id="u"><use transform="matrix(0.05,0,0,0.05,0,0)" xlink:href="#as"/><use transform="matrix(0.05,0,0,0.05,12.950000000000001,0)" xlink:href="#R"/><use transform="matrix(0.05,0,0,0.05,23.6,0)" xlink:href="#aj"/><use transform="matrix(0.05,0,0,0.05,34.550000000000004,0)" xlink:href="#ap"/></g><g id="v"><use transform="matrix(0.05,0,0,0.05,0,0)" xlink:href="#as"/><use transform="matrix(0.05,0,0,0.05,12.950000000000001,0)" xlink:href="#O"/><use transform="matrix(0.05,0,0,0.05,22.950000000000003,0)" xlink:href="#ak"/><use transform="matrix(0.05,0,0,0.05,31.950000000000003,0)" xlink:href="#al"/><use transform="matrix(0.05,0,0,0.05,41.95,0)" xlink:href="#S"/><use transform="matrix(0.05,0,0,0.05,54.900000000000006,0)" xlink:href="#H"/><use transform="matrix(0.05,0,0,0.05,64.9,0)" xlink:href="#am"/><use transform="matrix(0.05,0,0,0.05,73.9,0)" xlink:href="#J"/><use transform="matrix(0.05,0,0,0.05,77.85000000000001,0)" xlink:href="#Z"/><use transform="matrix(0.05,0,0,0.05,87.85000000000001,0)" xlink:href="#H"/><use transform="matrix(0.05,0,0,0.05,97.85000000000001,0)" xlink:href="#G"/></g><path d="M101-234c-31-9-42 10-38 44h38v23H63V0H32v-167H5v-23h27c-7-52 17-82 69-68v24" id="at"/><g id="w"><use transform="matrix(0.04938271604938272,0,0,0.04938271604938272,0,0)" xlink:href="#at"/><use transform="matrix(0.04938271604938272,0,0,0.04938271604938272,4.938271604938272,0)" xlink:href="#ab"/><use transform="matrix(0.04938271604938272,0,0,0.04938271604938272,14.814814814814817,0)" xlink:href="#ab"/><use transform="matrix(0.04938271604938272,0,0,0.04938271604938272,24.69135802469136,0)" xlink:href="#K"/></g><g id="x"><use transform="matrix(0.04938271604938272,0,0,0.04938271604938272,0,0)" xlink:href="#N"/><use transform="matrix(0.04938271604938272,0,0,0.04938271604938272,14.765432098765434,0)" xlink:href="#ar"/><use transform="matrix(0.04938271604938272,0,0,0.04938271604938272,24.641975308641978,0)" xlink:href="#G"/><use transform="matrix(0.04938271604938272,0,0,0.04938271604938272,33.53086419753087,0)" xlink:href="#af"/></g><path d="M115-194c53 0 69 39 70 98 0 66-23 100-70 100C84 3 66-7 56-30L54 0H23l1-261h32v101c10-23 28-34 59-34zm-8 174c40 0 45-34 45-75 0-40-5-75-45-74-42 0-51 32-51 76 0 43 10 73 51 73" id="au"/><g id="y"><use transform="matrix(0.04938271604938272,0,0,0.04938271604938272,0,0)" xlink:href="#au"/><use transform="matrix(0.04938271604938272,0,0,0.04938271604938272,9.876543209876544,0)" xlink:href="#H"/><use transform="matrix(0.04938271604938272,0,0,0.04938271604938272,19.75308641975309,0)" xlink:href="#P"/><use transform="matrix(0.04938271604938272,0,0,0.04938271604938272,23.654320987654323,0)" xlink:href="#ab"/><use transform="matrix(0.04938271604938272,0,0,0.04938271604938272,33.53086419753087,0)" xlink:href="#ac"/><use transform="matrix(0.04938271604938272,0,0,0.04938271604938272,43.40740740740741,0)" xlink:href="#ad"/></g><g id="z"><use transform="matrix(0.04938271604938272,0,0,0.04938271604938272,0,0)" xlink:href="#H"/><use transform="matrix(0.04938271604938272,0,0,0.04938271604938272,9.876543209876544,0)" xlink:href="#J"/><use transform="matrix(0.04938271604938272,0,0,0.04938271604938272,13.777777777777779,0)" xlink:href="#af"/><use transform="matrix(0.04938271604938272,0,0,0.04938271604938272,18.71604938271605,0)" xlink:href="#ae"/><use transform="matrix(0.04938271604938272,0,0,0.04938271604938272,28.592592592592595,0)" xlink:href="#H"/><use transform="matrix(0.04938271604938272,0,0,0.04938271604938272,38.46913580246914,0)" xlink:href="#I"/></g><g id="A"><use transform="matrix(0.04938271604938272,0,0,0.04938271604938272,0,0)" xlink:href="#af"/><use transform="matrix(0.04938271604938272,0,0,0.04938271604938272,4.938271604938272,0)" xlink:href="#ab"/></g><use transform="matrix(0.04938271604938272,0,0,0.04938271604938272,0,0)" xlink:href="#O" id="B"/><g id="C"><use transform="matrix(0.04938271604938272,0,0,0.04938271604938272,0,0)" xlink:href="#K"/><use transform="matrix(0.04938271604938272,0,0,0.04938271604938272,9.876543209876544,0)" xlink:href="#O"/><use transform="matrix(0.04938271604938272,0,0,0.04938271604938272,19.75308641975309,0)" xlink:href="#ak"/></g><g id="D"><use transform="matrix(0.04938271604938272,0,0,0.04938271604938272,0,0)" xlink:href="#ab"/><use transform="matrix(0.04938271604938272,0,0,0.04938271604938272,9.876543209876544,0)" xlink:href="#I"/></g><g id="E"><use transform="matrix(0.04938271604938272,0,0,0.04938271604938272,0,0)" xlink:href="#I"/><use transform="matrix(0.04938271604938272,0,0,0.04938271604938272,5.8765432098765435,0)" xlink:href="#H"/><use transform="matrix(0.04938271604938272,0,0,0.04938271604938272,15.753086419753087,0)" xlink:href="#am"/><use transform="matrix(0.04938271604938272,0,0,0.04938271604938272,24.641975308641978,0)" xlink:href="#J"/><use transform="matrix(0.04938271604938272,0,0,0.04938271604938272,28.543209876543212,0)" xlink:href="#Z"/><use transform="matrix(0.04938271604938272,0,0,0.04938271604938272,38.41975308641976,0)" xlink:href="#H"/></g></defs></g></svg>