<svg xmlns="http://www.w3.org/2000/svg" xmlns:xlink="http://www.w3.org/1999/xlink" xmlns:lucid="lucid" width="1040.5" height="829"><g transform="translate(720.5 20.5)" lucid:page-tab-id="0_0"><path d="M-1000-500H500v1500h-1500z" fill="#fff"/><path d="M-720-15a5 5 0 0 1 5-5h270a5 5 0 0 1 5 5v190a5 5 0 0 1-5 5h-270a5 5 0 0 1-5-5z" fill="#fff"/><path d="M-720 20v-35a5 5 0 0 1 5-5h270a5 5 0 0 1 5 5v35" fill="#ced4db"/><path d="M-720-15a5 5 0 0 1 5-5h270a5 5 0 0 1 5 5v190a5 5 0 0 1-5 5h-270a5 5 0 0 1-5-5zM-720 20h280M-580 20v160" stroke="#282c33" fill="none"/><use xlink:href="#a" transform="matrix(1,0,0,1,-710,-20) translate(0 23.6)"/><use xlink:href="#b" transform="matrix(1,0,0,1,-715,22.5) translate(0 17.1)"/><use xlink:href="#c" transform="matrix(1,0,0,1,-575,22.5) translate(0 17.1)"/><use xlink:href="#d" transform="matrix(1,0,0,1,-715,54.5) translate(0 17.1)"/><use xlink:href="#e" transform="matrix(1,0,0,1,-575,54.5) translate(0 17.1)"/><use xlink:href="#f" transform="matrix(1,0,0,1,-715,86.5) translate(0 17.1)"/><use xlink:href="#g" transform="matrix(1,0,0,1,-575,86.5) translate(0 17.1)"/><use xlink:href="#h" transform="matrix(1,0,0,1,-715,118.5) translate(0 17.1)"/><use xlink:href="#e" transform="matrix(1,0,0,1,-575,118.5) translate(0 17.1)"/><use xlink:href="#i" transform="matrix(1,0,0,1,-715,150.5) translate(0 17.1)"/><use xlink:href="#j" transform="matrix(1,0,0,1,-575,150.5) translate(0 17.1)"/><path d="M-720 325a5 5 0 0 1 5-5h270a5 5 0 0 1 5 5v126a5 5 0 0 1-5 5h-270a5 5 0 0 1-5-5z" fill="#fff"/><path d="M-720 360v-35a5 5 0 0 1 5-5h270a5 5 0 0 1 5 5v35" fill="#ced4db"/><path d="M-720 325a5 5 0 0 1 5-5h270a5 5 0 0 1 5 5v126a5 5 0 0 1-5 5h-270a5 5 0 0 1-5-5zM-720 360h280M-580 360v96" stroke="#282c33" fill="none"/><use xlink:href="#k" transform="matrix(1,0,0,1,-710,320) translate(0 23.6)"/><use xlink:href="#b" transform="matrix(1,0,0,1,-715,362.5) translate(0 17.1)"/><use xlink:href="#c" transform="matrix(1,0,0,1,-575,362.5) translate(0 17.1)"/><use xlink:href="#l" transform="matrix(1,0,0,1,-715,394.5) translate(0 17.1)"/><use xlink:href="#m" transform="matrix(1,0,0,1,-575,394.5) translate(0 17.1)"/><use xlink:href="#n" transform="matrix(1,0,0,1,-715,426.5) translate(0 17.1)"/><use xlink:href="#o" transform="matrix(1,0,0,1,-575,426.5) translate(0 17.1)"/><path d="M-180 645a5 5 0 0 1 5-5H95a5 5 0 0 1 5 5v158a5 5 0 0 1-5 5h-270a5 5 0 0 1-5-5z" fill="#fff"/><path d="M-180 680v-35a5 5 0 0 1 5-5H95a5 5 0 0 1 5 5v35" fill="#ced4db"/><path d="M-180 645a5 5 0 0 1 5-5H95a5 5 0 0 1 5 5v158a5 5 0 0 1-5 5h-270a5 5 0 0 1-5-5zM-180 680h280M-40 680v128" stroke="#282c33" fill="none"/><use xlink:href="#p" transform="matrix(1,0,0,1,-170,640) translate(0 23.6)"/><use xlink:href="#b" transform="matrix(1,0,0,1,-175,682.5) translate(0 17.1)"/><use xlink:href="#c" transform="matrix(1,0,0,1,-35,682.5) translate(0 17.1)"/><use xlink:href="#q" transform="matrix(1,0,0,1,-175,714.5) translate(0 17.1)"/><use xlink:href="#r" transform="matrix(1,0,0,1,-35,714.5) translate(0 17.1)"/><use xlink:href="#s" transform="matrix(1,0,0,1,-175,746.5) translate(0 17.1)"/><use xlink:href="#o" transform="matrix(1,0,0,1,-35,746.5) translate(0 17.1)"/><use xlink:href="#t" transform="matrix(1,0,0,1,-175,778.5) translate(0 17.1)"/><use xlink:href="#o" transform="matrix(1,0,0,1,-35,778.5) translate(0 17.1)"/><path d="M-580 200.5v79M-580 180.5v20m-10-10h20m-20 10h20" stroke="#3a414a" fill="none"/><path d="M-580 319.28v-20m10 20l-10-20m-10 20l10-20m10-10c0 5.52-4.48 10-10 10s-10-4.48-10-10c0-5.53 4.48-10 10-10s10 4.47 10 10z" stroke="#3a414a" fill="#fff"/><path d="M-180 325a5 5 0 0 1 5-5H95a5 5 0 0 1 5 5v158a5 5 0 0 1-5 5h-270a5 5 0 0 1-5-5z" fill="#fff"/><path d="M-180 360v-35a5 5 0 0 1 5-5H95a5 5 0 0 1 5 5v35" fill="#ced4db"/><path d="M-180 325a5 5 0 0 1 5-5H95a5 5 0 0 1 5 5v158a5 5 0 0 1-5 5h-270a5 5 0 0 1-5-5zM-180 360h280M-40 360v128" stroke="#282c33" fill="none"/><use xlink:href="#u" transform="matrix(1,0,0,1,-170,320) translate(0 23.6)"/><use xlink:href="#b" transform="matrix(1,0,0,1,-175,362.5) translate(0 17.1)"/><use xlink:href="#c" transform="matrix(1,0,0,1,-35,362.5) translate(0 17.1)"/><use xlink:href="#q" transform="matrix(1,0,0,1,-175,394.5) translate(0 17.1)"/><use xlink:href="#r" transform="matrix(1,0,0,1,-35,394.5) translate(0 17.1)"/><use xlink:href="#n" transform="matrix(1,0,0,1,-175,426.5) translate(0 17.1)"/><use xlink:href="#o" transform="matrix(1,0,0,1,-35,426.5) translate(0 17.1)"/><use xlink:href="#s" transform="matrix(1,0,0,1,-175,458.5) translate(0 17.1)"/><use xlink:href="#o" transform="matrix(1,0,0,1,-35,458.5) translate(0 17.1)"/><path d="M-220.5 376h-89.45a.05.05 0 0 1-.05-.05.05.05 0 0 0-.05-.05h-89.45" stroke="#3a414a" fill="none"/><path d="M-180.72 376h-20m20-10l-20 10m20 10l-20-10m0 0c0 5.52-4.48 10-10 10-5.53 0-10-4.48-10-10s4.47-10 10-10c5.52 0 10 4.48 10 10zM-439.28 375.9h20m-20 10l20-10m-20-10l20 10m20 0c0 5.52-4.47 10-10 10-5.52 0-10-4.48-10-10s4.48-10 10-10c5.53 0 10 4.48 10 10z" stroke="#3a414a" fill="#fff"/><path d="M-419.5 68H-46a6 6 0 0 1 6 6v205.5M-439.5 68h20m-10 10V58m10 20V58" stroke="#3a414a" fill="none"/><path d="M-40 319.28v-20m10 20l-10-20m-10 20l10-20m10-10c0 5.52-4.48 10-10 10s-10-4.48-10-10c0-5.53 4.48-10 10-10s10 4.47 10 10z" stroke="#3a414a" fill="#fff"/><path d="M-40 528v91.5" stroke="#3a414a" fill="none"/><path d="M-40 488.5v20m-10-10h20m0 20c0 5.52-4.48 10-10 10s-10-4.48-10-10 4.48-10 10-10 10 4.48 10 10z" stroke="#3a414a" fill="#fff"/><path d="M-40 639.28v-20m10 20l-10-20m-10 20l10-20m10 0h-20M-220.5 728H-574a6 6 0 0 1-6-6V496" stroke="#3a414a" fill="none"/><path d="M-180.72 728h-20m20-10l-20 10m20 10l-20-10m0 0c0 5.54-4.48 10-10 10-5.53 0-10-4.46-10-10 0-5.5 4.47-10 10-10 5.52 0 10 4.5 10 10zM-580 456.5v20m-10-10h20m0 20c0 5.52-4.48 10-10 10s-10-4.48-10-10 4.48-10 10-10 10 4.48 10 10z" stroke="#3a414a" fill="#fff"/><path d="M100 754a6 6 0 0 1 6-6h208a6 6 0 0 1 6 6v48a6 6 0 0 1-6 6H106a6 6 0 0 1-6-6z" fill="none"/><use xlink:href="#v" transform="matrix(1,0,0,1,100,748) translate(10.419753086419732 22.888888888888886)"/><use xlink:href="#w" transform="matrix(1,0,0,1,100,748) translate(59.70370370370369 22.888888888888886)"/><use xlink:href="#x" transform="matrix(1,0,0,1,100,748) translate(116.93827160493827 22.888888888888886)"/><use xlink:href="#y" transform="matrix(1,0,0,1,100,748) translate(137.62962962962962 22.888888888888886)"/><use xlink:href="#z" transform="matrix(1,0,0,1,100,748) translate(47.358024691358025 44.22222222222222)"/><use xlink:href="#A" transform="matrix(1,0,0,1,100,748) translate(85.82716049382717 44.22222222222222)"/><use xlink:href="#B" transform="matrix(1,0,0,1,100,748) translate(115.4567901234568 44.22222222222222)"/><use xlink:href="#C" transform="matrix(1,0,0,1,100,748) translate(140.14814814814815 44.22222222222222)"/><defs><path d="M232-93c-1 65-40 97-104 97C67 4 28-28 28-90v-158h33c8 89-33 224 67 224 102 0 64-133 71-224h33v155" id="D"/><path d="M135-143c-3-34-86-38-87 0 15 53 115 12 119 90S17 21 10-45l28-5c4 36 97 45 98 0-10-56-113-15-118-90-4-57 82-63 122-42 12 7 21 19 24 35" id="E"/><path d="M100-194c63 0 86 42 84 106H49c0 40 14 67 53 68 26 1 43-12 49-29l28 8c-11 28-37 45-77 45C44 4 14-33 15-96c1-61 26-98 85-98zm52 81c6-60-76-77-97-28-3 7-6 17-6 28h103" id="F"/><path d="M114-163C36-179 61-72 57 0H25l-1-190h30c1 12-1 29 2 39 6-27 23-49 58-41v29" id="G"/><g id="a"><use transform="matrix(0.05,0,0,0.05,0,0)" xlink:href="#D"/><use transform="matrix(0.05,0,0,0.05,12.950000000000001,0)" xlink:href="#E"/><use transform="matrix(0.05,0,0,0.05,21.950000000000003,0)" xlink:href="#F"/><use transform="matrix(0.05,0,0,0.05,31.950000000000003,0)" xlink:href="#G"/><use transform="matrix(0.05,0,0,0.05,37.900000000000006,0)" xlink:href="#E"/></g><path d="M24-231v-30h32v30H24zM24 0v-190h32V0H24" id="H"/><path d="M85-194c31 0 48 13 60 33l-1-100h32l1 261h-30c-2-10 0-23-3-31C134-8 116 4 85 4 32 4 16-35 15-94c0-66 23-100 70-100zm9 24c-40 0-46 34-46 75 0 40 6 74 45 74 42 0 51-32 51-76 0-42-9-74-50-73" id="I"/><g id="b"><use transform="matrix(0.05,0,0,0.05,0,0)" xlink:href="#H"/><use transform="matrix(0.05,0,0,0.05,3.95,0)" xlink:href="#I"/></g><path d="M30-248c87 1 191-15 191 75 0 78-77 80-158 76V0H30v-248zm33 125c57 0 124 11 124-50 0-59-68-47-124-48v98" id="J"/><path d="M194 0L95-120 63-95V0H30v-248h33v124l119-124h40L117-140 236 0h-42" id="K"/><g id="c"><use transform="matrix(0.05,0,0,0.05,0,0)" xlink:href="#J"/><use transform="matrix(0.05,0,0,0.05,12,0)" xlink:href="#K"/></g><path d="M210-169c-67 3-38 105-44 169h-31v-121c0-29-5-50-35-48C34-165 62-65 56 0H25l-1-190h30c1 10-1 24 2 32 10-44 99-50 107 0 11-21 27-35 58-36 85-2 47 119 55 194h-31v-121c0-29-5-49-35-48" id="L"/><path d="M141-36C126-15 110 5 73 4 37 3 15-17 15-53c-1-64 63-63 125-63 3-35-9-54-41-54-24 1-41 7-42 31l-33-3c5-37 33-52 76-52 45 0 72 20 72 64v82c-1 20 7 32 28 27v20c-31 9-61-2-59-35zM48-53c0 20 12 33 32 33 41-3 63-29 60-74-43 2-92-5-92 41" id="M"/><path d="M24 0v-261h32V0H24" id="N"/><g id="d"><use transform="matrix(0.05,0,0,0.05,0,0)" xlink:href="#F"/><use transform="matrix(0.05,0,0,0.05,10,0)" xlink:href="#L"/><use transform="matrix(0.05,0,0,0.05,24.950000000000003,0)" xlink:href="#M"/><use transform="matrix(0.05,0,0,0.05,34.95,0)" xlink:href="#H"/><use transform="matrix(0.05,0,0,0.05,38.900000000000006,0)" xlink:href="#N"/></g><path d="M137 0h-34L2-248h35l83 218 83-218h36" id="O"/><path d="M205 0l-28-72H64L36 0H1l101-248h38L239 0h-34zm-38-99l-47-123c-12 45-31 82-46 123h93" id="P"/><path d="M233-177c-1 41-23 64-60 70L243 0h-38l-65-103H63V0H30v-248c88 3 205-21 203 71zM63-129c60-2 137 13 137-47 0-61-80-42-137-45v92" id="Q"/><path d="M212-179c-10-28-35-45-73-45-59 0-87 40-87 99 0 60 29 101 89 101 43 0 62-24 78-52l27 14C228-24 195 4 139 4 59 4 22-46 18-125c-6-104 99-153 187-111 19 9 31 26 39 46" id="R"/><path d="M197 0v-115H63V0H30v-248h33v105h134v-105h34V0h-34" id="S"/><path d="M87 75C49 33 22-17 22-94c0-76 28-126 65-167h31c-38 41-64 92-64 168S80 34 118 75H87" id="T"/><path d="M101-251c82-7 93 87 43 132L82-64C71-53 59-42 53-27h129V0H18c2-99 128-94 128-182 0-28-16-43-45-43s-46 15-49 41l-32-3c6-41 34-60 81-64" id="U"/><path d="M54-142c48-35 137-8 131 61C196 18 31 33 14-55l32-4c7 23 22 37 52 37 35-1 51-22 54-58 4-55-73-65-99-34H22l8-134h141v27H59" id="V"/><path d="M33-261c38 41 65 92 65 168S71 34 33 75H2C39 34 66-17 66-93S39-220 2-261h31" id="W"/><g id="e"><use transform="matrix(0.05,0,0,0.05,0,0)" xlink:href="#O"/><use transform="matrix(0.05,0,0,0.05,10.65,0)" xlink:href="#P"/><use transform="matrix(0.05,0,0,0.05,22.65,0)" xlink:href="#Q"/><use transform="matrix(0.05,0,0,0.05,35.6,0)" xlink:href="#R"/><use transform="matrix(0.05,0,0,0.05,48.550000000000004,0)" xlink:href="#S"/><use transform="matrix(0.05,0,0,0.05,61.5,0)" xlink:href="#P"/><use transform="matrix(0.05,0,0,0.05,73.5,0)" xlink:href="#Q"/><use transform="matrix(0.05,0,0,0.05,86.45,0)" xlink:href="#T"/><use transform="matrix(0.05,0,0,0.05,92.4,0)" xlink:href="#U"/><use transform="matrix(0.05,0,0,0.05,102.4,0)" xlink:href="#V"/><use transform="matrix(0.05,0,0,0.05,112.4,0)" xlink:href="#V"/><use transform="matrix(0.05,0,0,0.05,122.4,0)" xlink:href="#W"/></g><path d="M115-194c55 1 70 41 70 98S169 2 115 4C84 4 66-9 55-30l1 105H24l-1-265h31l2 30c10-21 28-34 59-34zm-8 174c40 0 45-34 45-75s-6-73-45-74c-42 0-51 32-51 76 0 43 10 73 51 73" id="X"/><path d="M206 0h-36l-40-164L89 0H53L-1-190h32L70-26l43-164h34l41 164 42-164h31" id="Y"/><path d="M100-194c62-1 85 37 85 99 1 63-27 99-86 99S16-35 15-95c0-66 28-99 85-99zM99-20c44 1 53-31 53-75 0-43-8-75-51-75s-53 32-53 75 10 74 51 75" id="Z"/><g id="f"><use transform="matrix(0.05,0,0,0.05,0,0)" xlink:href="#X"/><use transform="matrix(0.05,0,0,0.05,10,0)" xlink:href="#M"/><use transform="matrix(0.05,0,0,0.05,20,0)" xlink:href="#E"/><use transform="matrix(0.05,0,0,0.05,29,0)" xlink:href="#E"/><use transform="matrix(0.05,0,0,0.05,38,0)" xlink:href="#Y"/><use transform="matrix(0.05,0,0,0.05,50.95,0)" xlink:href="#Z"/><use transform="matrix(0.05,0,0,0.05,60.95,0)" xlink:href="#G"/><use transform="matrix(0.05,0,0,0.05,66.9,0)" xlink:href="#I"/></g><g id="g"><use transform="matrix(0.05,0,0,0.05,0,0)" xlink:href="#O"/><use transform="matrix(0.05,0,0,0.05,10.65,0)" xlink:href="#P"/><use transform="matrix(0.05,0,0,0.05,22.65,0)" xlink:href="#Q"/><use transform="matrix(0.05,0,0,0.05,35.6,0)" xlink:href="#R"/><use transform="matrix(0.05,0,0,0.05,48.550000000000004,0)" xlink:href="#S"/><use transform="matrix(0.05,0,0,0.05,61.5,0)" xlink:href="#P"/><use transform="matrix(0.05,0,0,0.05,73.5,0)" xlink:href="#Q"/><use transform="matrix(0.05,0,0,0.05,86.45,0)" xlink:href="#T"/><use transform="matrix(0.05,0,0,0.05,92.4,0)" xlink:href="#U"/><use transform="matrix(0.05,0,0,0.05,102.4,0)" xlink:href="#V"/><use transform="matrix(0.05,0,0,0.05,112.4,0)" xlink:href="#V"/><use transform="matrix(0.05,0,0,0.05,122.4,0)" xlink:href="#W"/></g><path d="M117-194c89-4 53 116 60 194h-32v-121c0-31-8-49-39-48C34-167 62-67 57 0H25l-1-190h30c1 10-1 24 2 32 11-22 29-35 61-36" id="aa"/><g id="h"><use transform="matrix(0.05,0,0,0.05,0,0)" xlink:href="#aa"/><use transform="matrix(0.05,0,0,0.05,10,0)" xlink:href="#M"/><use transform="matrix(0.05,0,0,0.05,20,0)" xlink:href="#L"/><use transform="matrix(0.05,0,0,0.05,34.95,0)" xlink:href="#F"/></g><path d="M177-190C167-65 218 103 67 71c-23-6-38-20-44-43l32-5c15 47 100 32 89-28v-30C133-14 115 1 83 1 29 1 15-40 15-95c0-56 16-97 71-98 29-1 48 16 59 35 1-10 0-23 2-32h30zM94-22c36 0 50-32 50-73 0-42-14-75-50-75-39 0-46 34-46 75s6 73 46 73" id="ab"/><path d="M106-169C34-169 62-67 57 0H25v-261h32l-1 103c12-21 28-36 61-36 89 0 53 116 60 194h-32v-121c2-32-8-49-39-48" id="ac"/><path d="M59-47c-2 24 18 29 38 22v24C64 9 27 4 27-40v-127H5v-23h24l9-43h21v43h35v23H59v120" id="ad"/><g id="i"><use transform="matrix(0.05,0,0,0.05,0,0)" xlink:href="#Y"/><use transform="matrix(0.05,0,0,0.05,12.950000000000001,0)" xlink:href="#F"/><use transform="matrix(0.05,0,0,0.05,22.950000000000003,0)" xlink:href="#H"/><use transform="matrix(0.05,0,0,0.05,26.900000000000002,0)" xlink:href="#ab"/><use transform="matrix(0.05,0,0,0.05,36.900000000000006,0)" xlink:href="#ac"/><use transform="matrix(0.05,0,0,0.05,46.900000000000006,0)" xlink:href="#ad"/></g><path d="M63-220v92h138v28H63V0H30v-248h175v28H63" id="ae"/><path d="M30 0v-248h33v221h125V0H30" id="af"/><path d="M140-251c81 0 123 46 123 126C263-46 219 4 140 4 59 4 17-45 17-125s42-126 123-126zm0 227c63 0 89-41 89-101s-29-99-89-99c-61 0-89 39-89 99S79-25 140-24" id="ag"/><path d="M127-220V0H93v-220H8v-28h204v28h-85" id="ah"/><g id="j"><use transform="matrix(0.05,0,0,0.05,0,0)" xlink:href="#ae"/><use transform="matrix(0.05,0,0,0.05,10.950000000000001,0)" xlink:href="#af"/><use transform="matrix(0.05,0,0,0.05,20.950000000000003,0)" xlink:href="#ag"/><use transform="matrix(0.05,0,0,0.05,34.95,0)" xlink:href="#P"/><use transform="matrix(0.05,0,0,0.05,45.6,0)" xlink:href="#ah"/></g><path d="M30-248c118-7 216 8 213 122C240-48 200 0 122 0H30v-248zM63-27c89 8 146-16 146-99s-60-101-146-95v194" id="ai"/><path d="M179-190L93 31C79 59 56 82 12 73V49c39 6 53-20 64-50L1-190h34L92-34l54-156h33" id="aj"/><g id="k"><use transform="matrix(0.05,0,0,0.05,0,0)" xlink:href="#ai"/><use transform="matrix(0.05,0,0,0.05,12.950000000000001,0)" xlink:href="#M"/><use transform="matrix(0.05,0,0,0.05,22.950000000000003,0)" xlink:href="#aj"/><use transform="matrix(0.05,0,0,0.05,31.950000000000003,0)" xlink:href="#E"/></g><g id="l"><use transform="matrix(0.05,0,0,0.05,0,0)" xlink:href="#I"/><use transform="matrix(0.05,0,0,0.05,10,0)" xlink:href="#M"/><use transform="matrix(0.05,0,0,0.05,20,0)" xlink:href="#ad"/><use transform="matrix(0.05,0,0,0.05,25,0)" xlink:href="#F"/></g><path d="M30 0v-248h187v28H63v79h144v27H63v87h162V0H30" id="ak"/><g id="m"><use transform="matrix(0.05,0,0,0.05,0,0)" xlink:href="#ai"/><use transform="matrix(0.05,0,0,0.05,12.950000000000001,0)" xlink:href="#P"/><use transform="matrix(0.05,0,0,0.05,23.6,0)" xlink:href="#ah"/><use transform="matrix(0.05,0,0,0.05,34.550000000000004,0)" xlink:href="#ak"/></g><path d="M84 4C-5 8 30-112 23-190h32v120c0 31 7 50 39 49 72-2 45-101 50-169h31l1 190h-30c-1-10 1-25-2-33-11 22-28 36-60 37" id="al"/><path d="M-5 72V49h209v23H-5" id="am"/><g id="n"><use transform="matrix(0.05,0,0,0.05,0,0)" xlink:href="#al"/><use transform="matrix(0.05,0,0,0.05,10,0)" xlink:href="#E"/><use transform="matrix(0.05,0,0,0.05,19,0)" xlink:href="#F"/><use transform="matrix(0.05,0,0,0.05,29,0)" xlink:href="#G"/><use transform="matrix(0.05,0,0,0.05,34.95,0)" xlink:href="#am"/><use transform="matrix(0.05,0,0,0.05,44.95,0)" xlink:href="#H"/><use transform="matrix(0.05,0,0,0.05,48.900000000000006,0)" xlink:href="#I"/></g><g id="o"><use transform="matrix(0.05,0,0,0.05,0,0)" xlink:href="#ae"/><use transform="matrix(0.05,0,0,0.05,10.950000000000001,0)" xlink:href="#K"/></g><g id="p"><use transform="matrix(0.05,0,0,0.05,0,0)" xlink:href="#ae"/><use transform="matrix(0.05,0,0,0.05,10.950000000000001,0)" xlink:href="#Z"/><use transform="matrix(0.05,0,0,0.05,20.950000000000003,0)" xlink:href="#Z"/><use transform="matrix(0.05,0,0,0.05,30.950000000000003,0)" xlink:href="#I"/><use transform="matrix(0.05,0,0,0.05,40.95,0)" xlink:href="#E"/></g><path d="M96-169c-40 0-48 33-48 73s9 75 48 75c24 0 41-14 43-38l32 2c-6 37-31 61-74 61-59 0-76-41-82-99-10-93 101-131 147-64 4 7 5 14 7 22l-32 3c-4-21-16-35-41-35" id="an"/><g id="q"><use transform="matrix(0.05,0,0,0.05,0,0)" xlink:href="#an"/><use transform="matrix(0.05,0,0,0.05,9,0)" xlink:href="#M"/><use transform="matrix(0.05,0,0,0.05,19,0)" xlink:href="#N"/><use transform="matrix(0.05,0,0,0.05,22.95,0)" xlink:href="#Z"/><use transform="matrix(0.05,0,0,0.05,32.95,0)" xlink:href="#G"/><use transform="matrix(0.05,0,0,0.05,38.900000000000006,0)" xlink:href="#H"/><use transform="matrix(0.05,0,0,0.05,42.85000000000001,0)" xlink:href="#F"/><use transform="matrix(0.05,0,0,0.05,52.85,0)" xlink:href="#E"/></g><g id="r"><use transform="matrix(0.05,0,0,0.05,0,0)" xlink:href="#H"/><use transform="matrix(0.05,0,0,0.05,3.95,0)" xlink:href="#aa"/><use transform="matrix(0.05,0,0,0.05,13.949999999999998,0)" xlink:href="#ad"/></g><g id="s"><use transform="matrix(0.05,0,0,0.05,0,0)" xlink:href="#I"/><use transform="matrix(0.05,0,0,0.05,10,0)" xlink:href="#M"/><use transform="matrix(0.05,0,0,0.05,20,0)" xlink:href="#aj"/><use transform="matrix(0.05,0,0,0.05,29,0)" xlink:href="#am"/><use transform="matrix(0.05,0,0,0.05,39,0)" xlink:href="#H"/><use transform="matrix(0.05,0,0,0.05,42.95,0)" xlink:href="#I"/></g><g id="t"><use transform="matrix(0.05,0,0,0.05,0,0)" xlink:href="#G"/><use transform="matrix(0.05,0,0,0.05,5.95,0)" xlink:href="#F"/><use transform="matrix(0.05,0,0,0.05,15.949999999999998,0)" xlink:href="#an"/><use transform="matrix(0.05,0,0,0.05,24.95,0)" xlink:href="#H"/><use transform="matrix(0.05,0,0,0.05,28.899999999999995,0)" xlink:href="#X"/><use transform="matrix(0.05,0,0,0.05,38.9,0)" xlink:href="#F"/><use transform="matrix(0.05,0,0,0.05,48.9,0)" xlink:href="#am"/><use transform="matrix(0.05,0,0,0.05,58.900000000000006,0)" xlink:href="#H"/><use transform="matrix(0.05,0,0,0.05,62.85,0)" xlink:href="#I"/></g><g id="u"><use transform="matrix(0.05,0,0,0.05,0,0)" xlink:href="#Q"/><use transform="matrix(0.05,0,0,0.05,12.950000000000001,0)" xlink:href="#F"/><use transform="matrix(0.05,0,0,0.05,22.950000000000003,0)" xlink:href="#an"/><use transform="matrix(0.05,0,0,0.05,31.950000000000003,0)" xlink:href="#H"/><use transform="matrix(0.05,0,0,0.05,35.900000000000006,0)" xlink:href="#X"/><use transform="matrix(0.05,0,0,0.05,45.900000000000006,0)" xlink:href="#F"/><use transform="matrix(0.05,0,0,0.05,55.900000000000006,0)" xlink:href="#E"/></g><g id="v"><use transform="matrix(0.04938271604938272,0,0,0.04938271604938272,0,0)" xlink:href="#F"/><use transform="matrix(0.04938271604938272,0,0,0.04938271604938272,9.876543209876544,0)" xlink:href="#H"/><use transform="matrix(0.04938271604938272,0,0,0.04938271604938272,13.777777777777779,0)" xlink:href="#ad"/><use transform="matrix(0.04938271604938272,0,0,0.04938271604938272,18.71604938271605,0)" xlink:href="#ac"/><use transform="matrix(0.04938271604938272,0,0,0.04938271604938272,28.592592592592595,0)" xlink:href="#F"/><use transform="matrix(0.04938271604938272,0,0,0.04938271604938272,38.46913580246914,0)" xlink:href="#G"/></g><g id="w"><use transform="matrix(0.04938271604938272,0,0,0.04938271604938272,0,0)" xlink:href="#I"/><use transform="matrix(0.04938271604938272,0,0,0.04938271604938272,9.876543209876544,0)" xlink:href="#M"/><use transform="matrix(0.04938271604938272,0,0,0.04938271604938272,19.75308641975309,0)" xlink:href="#aj"/><use transform="matrix(0.04938271604938272,0,0,0.04938271604938272,28.641975308641978,0)" xlink:href="#am"/><use transform="matrix(0.04938271604938272,0,0,0.04938271604938272,38.51851851851852,0)" xlink:href="#H"/><use transform="matrix(0.04938271604938272,0,0,0.04938271604938272,42.41975308641975,0)" xlink:href="#I"/></g><g id="x"><use transform="matrix(0.04938271604938272,0,0,0.04938271604938272,0,0)" xlink:href="#Z"/><use transform="matrix(0.04938271604938272,0,0,0.04938271604938272,9.876543209876544,0)" xlink:href="#G"/></g><g id="y"><use transform="matrix(0.04938271604938272,0,0,0.04938271604938272,0,0)" xlink:href="#G"/><use transform="matrix(0.04938271604938272,0,0,0.04938271604938272,5.8765432098765435,0)" xlink:href="#F"/><use transform="matrix(0.04938271604938272,0,0,0.04938271604938272,15.753086419753087,0)" xlink:href="#an"/><use transform="matrix(0.04938271604938272,0,0,0.04938271604938272,24.641975308641978,0)" xlink:href="#H"/><use transform="matrix(0.04938271604938272,0,0,0.04938271604938272,28.543209876543212,0)" xlink:href="#X"/><use transform="matrix(0.04938271604938272,0,0,0.04938271604938272,38.41975308641976,0)" xlink:href="#F"/><use transform="matrix(0.04938271604938272,0,0,0.04938271604938272,48.296296296296305,0)" xlink:href="#am"/><use transform="matrix(0.04938271604938272,0,0,0.04938271604938272,58.17283950617284,0)" xlink:href="#H"/><use transform="matrix(0.04938271604938272,0,0,0.04938271604938272,62.074074074074076,0)" xlink:href="#I"/></g><g id="z"><use transform="matrix(0.04938271604938272,0,0,0.04938271604938272,0,0)" xlink:href="#L"/><use transform="matrix(0.04938271604938272,0,0,0.04938271604938272,14.765432098765434,0)" xlink:href="#M"/><use transform="matrix(0.04938271604938272,0,0,0.04938271604938272,24.641975308641978,0)" xlink:href="#aj"/></g><g id="A"><use transform="matrix(0.04938271604938272,0,0,0.04938271604938272,0,0)" xlink:href="#aa"/><use transform="matrix(0.04938271604938272,0,0,0.04938271604938272,9.876543209876544,0)" xlink:href="#Z"/><use transform="matrix(0.04938271604938272,0,0,0.04938271604938272,19.75308641975309,0)" xlink:href="#ad"/></g><path d="M115-194c53 0 69 39 70 98 0 66-23 100-70 100C84 3 66-7 56-30L54 0H23l1-261h32v101c10-23 28-34 59-34zm-8 174c40 0 45-34 45-75 0-40-5-75-45-74-42 0-51 32-51 76 0 43 10 73 51 73" id="ao"/><g id="B"><use transform="matrix(0.04938271604938272,0,0,0.04938271604938272,0,0)" xlink:href="#ao"/><use transform="matrix(0.04938271604938272,0,0,0.04938271604938272,9.876543209876544,0)" xlink:href="#F"/></g><path d="M33 0v-38h34V0H33" id="ap"/><g id="C"><use transform="matrix(0.04938271604938272,0,0,0.04938271604938272,0,0)" xlink:href="#aa"/><use transform="matrix(0.04938271604938272,0,0,0.04938271604938272,9.876543209876544,0)" xlink:href="#al"/><use transform="matrix(0.04938271604938272,0,0,0.04938271604938272,19.75308641975309,0)" xlink:href="#N"/><use transform="matrix(0.04938271604938272,0,0,0.04938271604938272,23.654320987654323,0)" xlink:href="#N"/><use transform="matrix(0.04938271604938272,0,0,0.04938271604938272,27.555555555555557,0)" xlink:href="#ap"/></g></defs></g></svg>